<svg xmlns="http://www.w3.org/2000/svg" viewBox="0 0 120 28" role="img" aria-label="Coinbase">
  <path fill="#0052FF" d="M8.5 6.5c5.8 0 9.9 4.4 9.9 10.2S14.3 27 8.5 27 0 22.6 0 16.7 2.7 6.5 8.5 6.5zm0 15.2c2.9 0 4.9-2.3 4.9-5s-2-5-4.9-5-4.9 2.3-4.9 5 2 5 4.9 5zm15.8-14.7h5.2v18.4h-5.2V7zm8 0h8.6c4.9 0 8.3 3.3 8.3 8.1 0 4.9-3.4 8.3-8.4 8.3h-8.5V7zm5.2 4.2v9.9h3.1c2.7 0 4.4-1.8 4.4-4.9 0-3.1-1.7-5-4.4-5h-3.1zm16.4-4.2h13.6v4.4H59.1v3.3h10.1v4.1H59.2v6.6h-5.2V7zm19.4 0h5.2v18.4h-5.2V7zm8.1 0h5.4l7.3 12.4V7h5.1v18.4h-5.4l-7.3-12.4v12.4h-5.1V7z"/>
</svg>
