<svg width="128" height="128" viewBox="0 0 128 128" fill="none" xmlns="http://www.w3.org/2000/svg" role="img" aria-label="FileFree - 3B inverted droplets converging on center">
  <g transform="translate(64 64) rotate(0) translate(-64 -64)">
    <g transform="translate(64 36) scale(0.85) rotate(180) translate(-64 -34.5)">
      <path d="M64,14 C69,28 75,37 75,44 C75,50 70,55 64,55 C58,55 53,50 53,44 C53,37 59,28 64,14 Z" fill="#4F46E5"/>
    </g>
  </g>
  <g transform="translate(64 64) rotate(120) translate(-64 -64)">
    <g transform="translate(64 36) scale(0.85) rotate(180) translate(-64 -34.5)">
      <path d="M64,14 C69,28 75,37 75,44 C75,50 70,55 64,55 C58,55 53,50 53,44 C53,37 59,28 64,14 Z" fill="#4F46E5"/>
    </g>
  </g>
  <g transform="translate(64 64) rotate(240) translate(-64 -64)">
    <g transform="translate(64 36) scale(0.85) rotate(180) translate(-64 -34.5)">
      <path d="M64,14 C69,28 75,37 75,44 C75,50 70,55 64,55 C58,55 53,50 53,44 C53,37 59,28 64,14 Z" fill="#4F46E5"/>
    </g>
  </g>
  <circle cx="64" cy="64" r="6" fill="#84CC16"/>
</svg>
