<svg width="720" height="150" viewBox="0 0 720 150" fill="none" xmlns="http://www.w3.org/2000/svg" role="img" aria-label="Paperwork Labs">
  <svg x="11" y="11" width="128" height="128" viewBox="0 0 128 128">
    <path d="M 80 18 L 80 24 A 16 16 0 0 1 96 40 L 96 88 A 24 24 0 0 1 72 112 L 56 112 A 24 24 0 0 1 32 88 L 32 40 A 16 16 0 0 1 48 24 L 64 24 A 8 8 0 0 1 72 32 L 72 88 A 8 8 0 0 1 64 96 L 48 96"
          stroke="#60A5FA" stroke-width="10" stroke-linecap="round" stroke-linejoin="round" fill="none"/>
    <circle cx="48" cy="96" r="5" fill="#FBBF24"/>
  </svg>
  <text
    x="160"
    y="98"
    fill="#FAFAFA"
    font-size="62"
    font-weight="600"
    letter-spacing="-0.5"
    font-family="Inter, -apple-system, BlinkMacSystemFont, 'Segoe UI', Roboto, Helvetica, Arial, sans-serif"
  >Paperwork Labs</text>
</svg>
