<svg clip-rule="evenodd" fill-rule="evenodd" height="400" stroke-linejoin="round" stroke-miterlimit="2" viewBox="0 0 560 400" width="560" xmlns="http://www.w3.org/2000/svg"><g transform="matrix(2.82083347 0 0 2.82083347 30.92543 154.899758)"><g fill-rule="nonzero"><path d="m16.717 20.235c-1.471 4.059-6.357 6.059-10.83 4.412-4.533-1.647-6.946-6.294-5.416-10.353 1.472-4.059 6.357-6.059 10.831-4.412 4.473 1.647 6.887 6.295 5.415 10.353z" fill="#e21e26"/><path d="m2.356 15.293c-1.354 1.941 0 4.882 1.178 6 1 1 3.296 2.235 5.415 1.823-2.649-1.235-6.298-3.47-6.475-7.764" fill="#1d191b"/><path d="m13.539 18.47c-.294.53-1.118.588-1.765.235-.648-.411-.942-1.117-.648-1.647.294-.529 1.118-.588 1.766-.235.706.412 1.001 1.118.647 1.647z" fill="#fff"/><path d="m15.6.295c-.059-.059-.059-.118-.117-.177 0-.058-.059-.117-.118-.058-.059-.059-.059 0-.118.058-.059.059-.117.118-.176.118s-.059 0-.118-.059c0-.059-.059-.059-.118-.059s-.118 0-.353.53c-.471.588-.942 1.176-1.413 1.764l-.058.059c-.412.589-.883 1.236-1.237 1.824-.412.647-.765 1.294-1.118 2-.353.647-.647 1.353-.883 2.059-.118.353-.235.764-.294 1.117s-.118.765-.177 1.118c-.059.176-.059.353-.059.529 0 .118-.058.295-.058.412-.059.294-.059.588 0 .883 0 .235.058.411.058.588-.588-.353-.647-.647-.765-1-.059-.294-.176-.706-.471-.647-.294.059-.471.353-.412.647.177.706.824 1.294 1.707 1.588.118.059.236.059.412.118.766.176 1.707.117 2.355-.353.235-.177.294-.53.059-.765-.177-.235-.766.471-1.413.588-.118 0-.177.059-.353.059-.118-.706-.059-1.471.059-2.176.117-.765.294-1.53.588-2.295.236-.705.53-1.411.824-2.058.118-.236.236-.471.353-.706.53-1 1.178-2 1.884-2.883.353-.411.942-1 1.354-1.353l.059-.058c.058-.059.235-.177.471-.412h.058v-.059c0-.235-.176-.588-.412-.941z"/></g><path d="m29.432 4.824v5.589h3.65v2.47h-3.591v7.588c0 1.059.294 1.294 1.354 1.294.647 0 1.236-.058 2.178-.294v3.059c-1.472.353-2.296.471-4.179.471-2.649 0-5.004-.824-5.004-3.824v-8.294h-2.707v-2.353c3.414 0 5.356-2 5.356-5.706zm19.306 15.941c0 .706.295 1 .883 1 .412 0 .883-.176 1.236-.352v2.823c-.647.294-1.295.824-4.179.824-1.295 0-2.766-.295-3.12-2.53-1 1.824-2.884 2.53-4.708 2.53-2.414 0-4.709-1.236-4.709-3.942 0-2.882 2.472-3.882 4.944-4.647 1.295-.411 2.59-.706 4.061-.882v-2.294c-.117-1.294-1.059-1.588-1.883-1.588-1.177 0-1.648.353-1.884.588.648.294 1.06.706 1.06 1.529 0 1.412-1.413 2-2.649 2-1.413 0-2.825-.882-2.825-2.411 0-3.295 4.65-3.589 7.004-3.589 2.826 0 6.769.647 6.769 4.353zm-5.65-.941v-2.117c-1.472.176-3.12.882-3.12 2.647 0 .706.412 1.353 1.177 1.353 1.001 0 1.943-.883 1.943-1.883zm20.366-4c1.943.411 3.002 2.176 3.002 3.941 0 3.588-3.708 5.118-6.71 5.118-1.824 0-3.59-.412-5.062-1.412l-.53 1.117h-2.295v-5.294h2.472c.647 2 2.825 2.883 4.709 2.883.824 0 2.295-.177 2.295-1.294 0-.589-.353-.942-1-1l-5.415-1.177c-2.237-.412-3.355-1.706-3.355-3.941 0-3.647 3.355-5.059 6.533-5.059 1.766 0 3.237.353 4.768 1.059l.647-1.059h2.06v5.177h-2.472c-.647-1.824-2.354-2.589-4.238-2.589-.824 0-2.178.236-2.178 1.294 0 .471.295.706.766.824zm41.086-11.118-.118 5.588h3.649v2.471h-3.649v7.647c0 1.059.294 1.294 1.354 1.294.647 0 1.236-.059 2.178-.294v3.118c-1.472.353-2.355.47-4.238.47-2.59 0-5.003-.823-5.003-3.823v-8.412h-2.944c-.824.235-1.294 2.235-7.239 15.941-.942 2.177-3.061 3.235-5.416 3.235-2.178 0-4.532-1.117-4.532-3.588 0-1.882 1.236-2.882 3.002-2.882 1.354 0 2.413.764 2.413 2.176 0 .883-.412 1.353-1.177 1.765.118.118.353.235.706.235 1.413 0 2.414-1.059 3.061-3.117 0-.059 0-.059-5.592-13.059-.235-.353-.471-.647-.941-.647h-5.063v7.647c0 1.059.295 1.294 1.354 1.294.648 0 1.236-.059 2.178-.294v3.117c-1.471.353-2.354.471-4.238.471-2.59 0-5.003-.824-5.003-3.824v-8.411h-2.708v-2.353c3.473 0 5.416-2.059 5.416-5.765h3.001v5.647h13.833v2.471h-.765c-1.06 0-1.295 0-1.295.47 0 .353.647 1.883 2.472 6.118l.235 1.294.295-1.294c2.177-4.882 2.531-5.824 2.531-6.118s0-.47-.648-.47h-1.236v-2.471h6.651c.236 0 .471 0 .707-.059 2.413-.588 3.767-2.529 3.767-5.588zm16.656 5.118c1.884 0 3.532.883 3.767 2.824.236 1.765-1 3.47-2.825 3.47-1.472 0-2.708-.882-2.708-2.353 0-.588.177-.941.471-1.294-1.236 0-2.707 1.706-2.707 3.706v5.471c0 .412.235.588.529.588h3.002v2.471h-11.301v-2.471h1.589c.236 0 .471-.059.471-.471v-7.941c0-1.059-.471-1.059-1.177-1.059h-.883v-2.47l7.711-.235-.236 2.47c1.295-2.412 3.002-2.706 4.297-2.706zm18.484 11c0 .647.236.941.942.941.412 0 .883-.177 1.295-.353v2.882c-.648.294-1.295.824-4.238.824-1.354 0-2.825-.235-3.179-2.53-1.059 1.824-2.943 2.53-4.767 2.53-2.414 0-4.768-1.235-4.768-4 0-2.883 2.472-3.941 4.944-4.706 1.295-.412 2.59-.706 4.062-.882v-2.353c-.059-1.294-1.06-1.589-1.884-1.589-1.177 0-1.648.353-1.884.589.707.353 1.119.764 1.119 1.588 0 1.412-1.413 2-2.649 2-1.471 0-2.884-.824-2.884-2.412 0-3.353 4.709-3.647 7.063-3.647 2.826 0 6.828.706 6.828 4.412zm-5.709-.941-.059-2.177c-1.413.235-3.12.941-3.12 2.706 0 .706.471 1.353 1.236 1.353 1.001 0 1.943-.882 1.943-1.882zm24.19 1.763c0 .353.295.589.589.706h1.53v2.471h-7.71v-1.471c-.942 1.471-2.708 1.942-4.356 1.942-4.532 0-6.239-3.706-6.239-7.883 0-4.176 2.236-7.588 6.71-7.588 1.059 0 2.825.176 4.12 2.059l-.294-1.059v-3.765c0-.412-.295-.706-.707-.706h-1.707v-2.47l8.064-.471zm-7.946.883c2.178 0 2.355-2.824 2.355-4.941 0-1.706 0-5.118-2.237-5.118-1.825 0-2.296 1.471-2.296 5.176 0 3.706.412 4.883 2.178 4.883zm19.66-.235c2.06 0 3.119-.647 3.59-2.647h2.943c-.235 4.059-4.414 5.471-7.887 5.471-4.944 0-8.476-2.353-8.476-7.706 0-4.941 3.532-7.706 8.358-7.706 5.415 0 8.182 3.118 8.182 8.412h-10.419c0 2.647.942 4.176 3.709 4.176zm-1.472-9.882c-1.589 0-2.178 1.882-2.178 3.235h4.238c0-1.353-.294-3.235-2.06-3.235z"/></g></svg>