<svg width="128" height="128" viewBox="0 0 128 128" fill="none" xmlns="http://www.w3.org/2000/svg" role="img" aria-label="Trinkets - asymmetric droplet pair with cyan spark dot">
  <g transform="translate(46 50) scale(1.4) translate(-64 -34.5)">
    <path d="M64,14 C69,28 75,37 75,44 C75,50 70,55 64,55 C58,55 53,50 53,44 C53,37 59,28 64,14 Z" fill="#6366F1"/>
  </g>
  <g transform="translate(86 78) scale(0.8) translate(-64 -34.5)">
    <path d="M64,14 C69,28 75,37 75,44 C75,50 70,55 64,55 C58,55 53,50 53,44 C53,37 59,28 64,14 Z" fill="#6366F1"/>
  </g>
  <circle cx="100" cy="40" r="5" fill="#38BDF8"/>
</svg>
